<mxfile host="www.draw.io" modified="2019-10-29T15:40:40.039Z" agent="Mozilla/5.0 (X11; Linux x86_64) AppleWebKit/537.36 (KHTML, like Gecko) Chrome/78.0.3904.50 Safari/537.36 OPR/65.0.3467.16 (Edition beta)" etag="sZhvlMCU-k-TXXhinjeL" version="12.1.8" type="github" pages="1">
  <diagram id="wXu1g00jujh95kKOo2wR" name="Страница 1">
    <mxGraphModel dx="1088" dy="909" grid="1" gridSize="10" guides="1" tooltips="1" connect="1" arrows="1" fold="1" page="1" pageScale="1" pageWidth="827" pageHeight="1169" math="0" shadow="0">
      <root>
        <mxCell id="0"/>
        <mxCell id="1" parent="0"/>
        <mxCell id="96BAr8sMEZdooOeOU_b8-1" value="" style="whiteSpace=wrap;html=1;aspect=fixed;" vertex="1" parent="1">
          <mxGeometry x="40" y="180" width="160" height="160" as="geometry"/>
        </mxCell>
        <mxCell id="96BAr8sMEZdooOeOU_b8-2" value="" style="ellipse;whiteSpace=wrap;html=1;aspect=fixed;" vertex="1" parent="1">
          <mxGeometry x="340" y="180" width="160" height="160" as="geometry"/>
        </mxCell>
        <mxCell id="96BAr8sMEZdooOeOU_b8-3" value="" style="endArrow=classic;html=1;exitX=1;exitY=0.5;exitDx=0;exitDy=0;" edge="1" parent="1" source="96BAr8sMEZdooOeOU_b8-1" target="96BAr8sMEZdooOeOU_b8-2">
          <mxGeometry width="50" height="50" relative="1" as="geometry">
            <mxPoint x="40" y="410" as="sourcePoint"/>
            <mxPoint x="90" y="360" as="targetPoint"/>
          </mxGeometry>
        </mxCell>
      </root>
    </mxGraphModel>
  </diagram>
</mxfile>
